HIERARCHY
ROOT Hips
{
	OFFSET 0.00000 0.00000 0.00000
	CHANNELS 6 Xposition Yposition Zposition Zrotation Yrotation Xrotation 
	JOINT LHipJoint
	{
		OFFSET 0 0 0
		CHANNELS 3 Zrotation Yrotation Xrotation
		JOINT LeftUpLeg
		{
			OFFSET 1.82298 -1.58346 0.87084
			CHANNELS 3 Zrotation Yrotation Xrotation
			JOINT LeftLeg
			{
				OFFSET 2.43790 -6.69809 0.00000
				CHANNELS 3 Zrotation Yrotation Xrotation
				JOINT LeftFoot
				{
					OFFSET 2.59288 -7.12389 0.00000
					CHANNELS 3 Zrotation Yrotation Xrotation
					JOINT LeftToeBase
					{
						OFFSET 0.14552 -0.39981 2.13160
						CHANNELS 3 Zrotation Yrotation Xrotation
						End Site
						{
							OFFSET 0.00000 -0.00000 1.09427
						}
					}
				}
			}
		}
	}
	JOINT RHipJoint
	{
		OFFSET 0 0 0
		CHANNELS 3 Zrotation Yrotation Xrotation
		JOINT RightUpLeg
		{
			OFFSET -1.77229 -1.58346 0.87084
			CHANNELS 3 Zrotation Yrotation Xrotation
			JOINT RightLeg
			{
				OFFSET -2.50703 -6.88801 0.00000
				CHANNELS 3 Zrotation Yrotation Xrotation
				JOINT RightFoot
				{
					OFFSET -2.61620 -7.18796 0.00000
					CHANNELS 3 Zrotation Yrotation Xrotation
					JOINT RightToeBase
					{
						OFFSET -0.15190 -0.41735 2.15974
						CHANNELS 3 Zrotation Yrotation Xrotation
						End Site
						{
							OFFSET -0.00000 -0.00000 1.10919
						}
					}
				}
			}
		}
	}
	JOINT LowerBack
	{
		OFFSET 0 0 0
		CHANNELS 3 Zrotation Yrotation Xrotation
		JOINT Spine
		{
			OFFSET -0.03602 2.12423 -0.30249
			CHANNELS 3 Zrotation Yrotation Xrotation
			JOINT Spine1
			{
				OFFSET 0.02717 2.10043 0.12912
				CHANNELS 3 Zrotation Yrotation Xrotation
				JOINT Neck
				{
					OFFSET 0 0 0
					CHANNELS 3 Zrotation Yrotation Xrotation
					JOINT Neck1
					{
						OFFSET -0.06371 1.88656 0.11602
						CHANNELS 3 Zrotation Yrotation Xrotation
						JOINT Head
						{
							OFFSET 0.08208 1.87759 -0.11505
							CHANNELS 3 Zrotation Yrotation Xrotation
							End Site
							{
								OFFSET 0.03382 1.93090 -0.05483
							}
						}
					}
				}
				JOINT LeftShoulder
				{
					OFFSET 0 0 0
					CHANNELS 3 Zrotation Yrotation Xrotation
					JOINT LeftArm
					{
						OFFSET 3.30903 1.40357 0.20156
						CHANNELS 3 Zrotation Yrotation Xrotation
						JOINT LeftForeArm
						{
							OFFSET 5.43301 -0.00000 0.00000
							CHANNELS 3 Zrotation Yrotation Xrotation
							JOINT LeftHand
							{
								OFFSET 3.15936 -0.00000 0.00000
								CHANNELS 3 Zrotation Yrotation Xrotation
								JOINT LeftFingerBase
								{
									OFFSET 0 0 0
									CHANNELS 3 Zrotation Yrotation Xrotation
									JOINT LeftHandIndex1
									{
										OFFSET 0.71283 -0.00000 0.00000
										CHANNELS 3 Zrotation Yrotation Xrotation
										End Site
										{
											OFFSET 0.57470 -0.00000 0.00000
										}
									}
								}
								JOINT LThumb
								{
									OFFSET 0 0 0
									CHANNELS 3 Zrotation Yrotation Xrotation
									End Site
									{
										OFFSET 0.58347 -0.00000 0.58347
									}
								}
							}
						}
					}
				}
				JOINT RightShoulder
				{
					OFFSET 0 0 0
					CHANNELS 3 Zrotation Yrotation Xrotation
					JOINT RightArm
					{
						OFFSET -3.12947 1.60037 -0.00464
						CHANNELS 3 Zrotation Yrotation Xrotation
						JOINT RightForeArm
						{
							OFFSET -5.34194 -0.00000 0.00000
							CHANNELS 3 Zrotation Yrotation Xrotation
							JOINT RightHand
							{
								OFFSET -3.19351 -0.00000 0.00000
								CHANNELS 3 Zrotation Yrotation Xrotation
								JOINT RightFingerBase
								{
									OFFSET 0 0 0
									CHANNELS 3 Zrotation Yrotation Xrotation
									JOINT RightHandIndex1
									{
										OFFSET -0.74386 -0.00000 0.00000
										CHANNELS 3 Zrotation Yrotation Xrotation
										End Site
										{
											OFFSET -0.59972 -0.00000 0.00000
										}
									}
								}
								JOINT RThumb
								{
									OFFSET 0 0 0
									CHANNELS 3 Zrotation Yrotation Xrotation
									End Site
									{
										OFFSET -0.60888 -0.00000 0.60888
									}
								}
							}
						}
					}
				}
			}
		}
	}
}
MOTION
Frames: 13
Frame Time: .0083333
-0.8450 11.4621 11.2733 -1.6683 1.4142 9.1171 0.0000 0.0000 0.0000 -3.6536 -7.3950 -74.3610 26.2382 19.0402 108.5242 2.9627 5.4150 -34.7438 0.5150 -4.5999 -12.7708 0.0000 0.0000 0.0000 7.0479 13.8235 -73.1689 -26.5664 -18.9332 109.5331 -3.3056 -5.9593 -36.7848 -0.4908 4.4919 -12.4647 -2.3564 1.5793 18.9952 1.0862 1.6959 -3.5782 2.0445 1.0457 -14.9377 -5.6083 -3.2270 -9.3090 4.9705 -4.0732 7.9389 2.1747 -1.9148 4.1086 0.0000 0.0000 0.0000 -92.1701 -72.2566 37.8557 85.0224 -59.9062 -55.6906 -0.0000 -0.0000 35.5906 10.8884 2.0128 0.3871 -7.1250 0.0000 -0.0000 -12.5546 31.8624 4.1224 0.0000 0.0000 0.0000 35.0076 62.8893 -5.5558 -97.8246 59.7674 -66.7710 0.0000 0.0000 20.7394 1.2329 -13.9932 -0.2982 7.1250 -0.0000 -0.0000 25.5259 -42.4207 1.7502
-0.8464 11.4614 11.2736 -1.6627 1.4235 9.1136 0.0000 0.0000 0.0000 -3.6519 -7.4003 -74.3582 26.2395 19.0398 108.5284 2.9634 5.4105 -34.7458 0.5142 -4.5960 -12.7596 0.0000 0.0000 0.0000 7.0510 13.8118 -73.1673 -26.5691 -18.9322 109.5415 -3.3056 -5.9713 -36.7901 -0.4923 4.4987 -12.4842 -2.3578 1.5774 18.9936 1.0854 1.6929 -3.5759 2.0454 1.0444 -14.9338 -5.6157 -3.2288 -9.3051 4.9771 -4.0756 7.9417 2.1778 -1.9159 4.1092 -0.0000 -0.0000 0.0000 -92.1652 -72.2578 37.8375 85.0294 -59.9064 -55.6967 -0.0000 -0.0000 35.5840 10.9139 2.0171 0.3889 -7.1250 0.0000 -0.0000 -12.5351 31.8674 4.1141 -0.0000 -0.0000 0.0000 34.9599 62.8949 -5.6079 -97.8315 59.7670 -66.7769 0.0000 0.0000 20.7357 1.2303 -13.9913 -0.2975 7.1250 -0.0000 -0.0000 25.5230 -42.4193 1.7509
-0.8478 11.4608 11.2739 -1.6564 1.4328 9.1097 0.0000 0.0000 0.0000 -3.6507 -7.4094 -74.3531 26.2409 19.0393 108.5326 2.9646 5.4061 -34.7503 0.5113 -4.5836 -12.7246 0.0000 0.0000 0.0000 7.0525 13.8018 -73.1630 -26.5715 -18.9314 109.5488 -3.3063 -5.9794 -36.7976 -0.4933 4.5031 -12.4965 -2.3611 1.5749 18.9911 1.0851 1.6887 -3.5737 2.0483 1.0427 -14.9296 -5.6270 -3.2311 -9.2942 4.9902 -4.0788 7.9365 2.1836 -1.9173 4.1065 0.0000 -0.0000 0.0000 -92.1487 -72.2579 37.8101 85.0377 -59.9067 -55.7039 -0.0000 -0.0000 35.5814 10.9364 2.0173 0.3897 -7.1250 0.0000 -0.0000 -12.5174 31.8683 4.1078 0.0000 -0.0000 0.0000 34.9219 62.9013 -5.6495 -97.8378 59.7666 -66.7824 0.0000 0.0000 20.7329 1.2283 -13.9887 -0.2970 7.1250 -0.0000 -0.0000 25.5204 -42.4171 1.7522
-0.8492 11.4598 11.2741 -1.6521 1.4388 9.1085 0.0000 0.0000 0.0000 -3.6461 -7.4183 -74.3551 26.2436 19.0385 108.5410 2.9658 5.4037 -34.7552 0.5088 -4.5725 -12.6931 0.0000 0.0000 0.0000 7.0526 13.7996 -73.1641 -26.5753 -18.9302 109.5604 -3.3073 -5.9872 -36.8061 -0.4944 4.5079 -12.5102 -2.3647 1.5732 18.9861 1.0856 1.6858 -3.5725 2.0520 1.0417 -14.9250 -5.6441 -3.2332 -9.2785 5.0120 -4.0820 7.9250 2.1931 -1.9185 4.1013 0.0000 0.0000 0.0000 -92.1275 -72.2586 37.7811 85.0501 -59.9072 -55.7146 -0.0000 -0.0000 35.5812 10.9409 2.0193 0.3903 -7.1250 0.0000 -0.0000 -12.5141 31.8704 4.1060 0.0000 0.0000 0.0000 34.8888 62.9051 -5.6845 -97.8431 59.7663 -66.7870 0.0000 0.0000 20.7299 1.2271 -13.9842 -0.2966 7.1250 -0.0000 -0.0000 25.5177 -42.4132 1.7546
-0.8504 11.4586 11.2742 -1.6485 1.4426 9.1095 0.0000 0.0000 0.0000 -3.6403 -7.4285 -74.3614 26.2471 19.0374 108.5515 2.9661 5.4098 -34.7598 0.5066 -4.5627 -12.6655 0.0000 0.0000 0.0000 7.0503 13.8032 -73.1690 -26.5794 -18.9288 109.5730 -3.3085 -5.9924 -36.8144 -0.4953 4.5120 -12.5217 -2.3683 1.5717 18.9795 1.0861 1.6831 -3.5719 2.0555 1.0408 -14.9203 -5.6588 -3.2362 -9.2654 5.0330 -4.0866 7.9138 2.2019 -1.9202 4.0968 0.0000 -0.0000 0.0000 -92.1007 -72.2582 37.7503 85.0636 -59.9077 -55.7263 -0.0000 -0.0000 35.5826 10.9346 2.0173 0.3896 -7.1250 0.0000 -0.0000 -12.5188 31.8682 4.1083 0.0000 -0.0000 0.0000 34.8603 62.9077 -5.7134 -97.8427 59.7663 -66.7866 0.0000 0.0000 20.7283 1.2185 -13.9783 -0.2944 7.1250 -0.0000 -0.0000 25.5081 -42.4086 1.7570
-0.8516 11.4575 11.2743 -1.6470 1.4471 9.1129 0.0000 0.0000 0.0000 -3.6308 -7.4422 -74.3714 26.2512 19.0361 108.5641 2.9664 5.4143 -34.7639 0.5041 -4.5516 -12.6340 0.0000 0.0000 0.0000 7.0488 13.8107 -73.1761 -26.5834 -18.9274 109.5856 -3.3098 -5.9978 -36.8239 -0.4952 4.5119 -12.5215 -2.3706 1.5696 18.9711 1.0872 1.6800 -3.5723 2.0591 1.0396 -14.9157 -5.6746 -3.2392 -9.2539 5.0564 -4.0912 7.9046 2.2115 -1.9219 4.0931 -0.0000 -0.0000 0.0000 -92.0710 -72.2571 37.7201 85.0775 -59.9082 -55.7383 -0.0000 -0.0000 35.5838 10.9134 2.0161 0.3886 -7.1250 0.0000 -0.0000 -12.5354 31.8665 4.1145 -0.0000 -0.0000 0.0000 34.8367 62.9084 -5.7351 -97.8380 59.7666 -66.7825 0.0000 0.0000 20.7252 1.2043 -13.9708 -0.2908 7.1250 -0.0000 -0.0000 25.4934 -42.4035 1.7593
-0.8529 11.4564 11.2742 -1.6504 1.4529 9.1186 0.0000 0.0000 0.0000 -3.6144 -7.4579 -74.3871 26.2553 19.0348 108.5767 2.9656 5.4242 -34.7641 0.5030 -4.5464 -12.6193 0.0000 0.0000 0.0000 7.0518 13.8231 -73.1868 -26.5875 -18.9261 109.5982 -3.3097 -6.0118 -36.8296 -0.4957 4.5139 -12.5271 -2.3681 1.5672 18.9639 1.0893 1.6779 -3.5743 2.0608 1.0386 -14.9136 -5.6888 -3.2440 -9.2475 5.0786 -4.0982 7.9012 2.2203 -1.9247 4.0922 -0.0000 -0.0000 0.0000 -92.0458 -72.2533 37.6990 85.0922 -59.9088 -55.7510 -0.0000 -0.0000 35.5839 10.8913 2.0121 0.3871 -7.1250 0.0000 -0.0000 -12.5522 31.8618 4.1217 -0.0000 -0.0000 0.0000 34.8174 62.9065 -5.7524 -97.8297 59.7671 -66.7754 0.0000 0.0000 20.7254 1.1847 -13.9630 -0.2859 7.1250 -0.0000 -0.0000 25.4740 -42.3984 1.7612
-0.8542 11.4556 11.2742 -1.6574 1.4649 9.1244 0.0000 0.0000 0.0000 -3.5925 -7.4803 -74.4017 26.2587 19.0337 108.5873 2.9642 5.4357 -34.7620 0.5016 -4.5405 -12.6024 0.0000 0.0000 0.0000 7.0600 13.8339 -73.1946 -26.5903 -18.9251 109.6066 -3.3094 -6.0272 -36.8353 -0.4952 4.5117 -12.5208 -2.3616 1.5628 18.9584 1.0931 1.6743 -3.5765 2.0627 1.0366 -14.9126 -5.6980 -3.2508 -9.2480 5.0924 -4.1076 7.9033 2.2254 -1.9289 4.0939 -0.0000 -0.0000 0.0000 -92.0246 -72.2473 37.6839 85.1047 -59.9093 -55.7619 -0.0000 -0.0000 35.5834 10.8733 2.0057 0.3852 -7.1250 0.0000 -0.0000 -12.5654 31.8548 4.1284 -0.0000 -0.0000 0.0000 34.8005 62.9044 -5.7667 -97.8216 59.7676 -66.7684 0.0000 0.0000 20.7273 1.1648 -13.9565 -0.2810 7.1250 -0.0000 -0.0000 25.4548 -42.3946 1.7623
-0.8556 11.4551 11.2741 -1.6690 1.4829 9.1309 0.0000 0.0000 0.0000 -3.5636 -7.5076 -74.4175 26.2615 19.0328 108.5957 2.9625 5.4460 -34.7572 0.5004 -4.5349 -12.5867 0.0000 0.0000 0.0000 7.0757 13.8431 -73.2007 -26.5916 -18.9247 109.6108 -3.3076 -6.0529 -36.8381 -0.4948 4.5101 -12.5164 -2.3503 1.5566 18.9563 1.0991 1.6697 -3.5813 2.0646 1.0340 -14.9165 -5.7075 -3.2577 -9.2484 5.1033 -4.1169 7.9092 2.2296 -1.9331 4.0967 -0.0000 -0.0000 0.0000 -92.0082 -72.2356 37.6755 85.1151 -59.9096 -55.7708 -0.0000 -0.0000 35.5832 10.8684 1.9944 0.3828 -7.1250 0.0000 -0.0000 -12.5677 31.8435 4.1327 -0.0000 -0.0000 0.0000 34.7934 62.9001 -5.7697 -97.8178 59.7678 -66.7652 0.0000 0.0000 20.7309 1.1429 -13.9543 -0.2756 7.1250 -0.0000 -0.0000 25.4357 -42.3949 1.7605
-0.8570 11.4546 11.2738 -1.6836 1.5006 9.1414 0.0000 0.0000 0.0000 -3.5309 -7.5328 -74.4391 26.2639 19.0320 108.6030 2.9593 5.4639 -34.7483 0.5006 -4.5358 -12.5891 0.0000 0.0000 0.0000 7.0928 13.8559 -73.2131 -26.5923 -18.9245 109.6129 -3.3050 -6.0777 -36.8362 -0.4938 4.5054 -12.5032 -2.3382 1.5510 18.9545 1.1069 1.6663 -3.5875 2.0677 1.0320 -14.9225 -5.7153 -3.2646 -9.2499 5.1089 -4.1258 7.9137 2.2319 -1.9374 4.0991 -0.0000 -0.0000 0.0000 -91.9945 -72.2219 37.6702 85.1225 -59.9099 -55.7772 -0.0000 -0.0000 35.5858 10.8773 1.9801 0.3804 -7.1250 0.0000 -0.0000 -12.5587 31.8296 4.1339 -0.0000 -0.0000 0.0000 34.7877 62.8961 -5.7706 -97.8192 59.7677 -66.7664 0.0000 0.0000 20.7352 1.1244 -13.9517 -0.2711 7.1250 -0.0000 -0.0000 25.4193 -42.3945 1.7595
-0.8585 11.4544 11.2734 -1.7002 1.5170 9.1520 0.0000 0.0000 0.0000 -3.4962 -7.5541 -74.4605 26.2653 19.0316 108.6072 2.9561 5.4783 -34.7379 0.5013 -4.5389 -12.5979 0.0000 0.0000 0.0000 7.1126 13.8710 -73.2249 -26.5916 -18.9247 109.6108 -3.3017 -6.1012 -36.8304 -0.4919 4.4971 -12.4795 -2.3256 1.5460 18.9553 1.1159 1.6641 -3.5952 2.0714 1.0307 -14.9319 -5.7212 -3.2699 -9.2456 5.1098 -4.1323 7.9139 2.2328 -1.9409 4.0990 0.0000 0.0000 0.0000 -91.9827 -72.2035 37.6672 85.1256 -59.9100 -55.7800 -0.0000 -0.0000 35.5904 10.9014 1.9631 0.3780 -7.1250 0.0000 -0.0000 -12.5373 31.8134 4.1315 0.0000 0.0000 0.0000 34.7868 62.8905 -5.7648 -97.8259 59.7673 -66.7722 0.0000 0.0000 20.7404 1.1102 -13.9514 -0.2677 7.1250 -0.0000 -0.0000 25.4072 -42.3955 1.7578
-0.8600 11.4544 11.2728 -1.7154 1.5321 9.1630 0.0000 0.0000 0.0000 -3.4639 -7.5719 -74.4817 26.2656 19.0315 108.6083 2.9531 5.4886 -34.7267 0.5019 -4.5418 -12.6061 0.0000 0.0000 0.0000 7.1316 13.8847 -73.2376 -26.5906 -18.9250 109.6076 -3.2982 -6.1231 -36.8229 -0.4906 4.4909 -12.4621 -2.3151 1.5422 18.9579 1.1249 1.6628 -3.6027 2.0759 1.0299 -14.9424 -5.7266 -3.2736 -9.2400 5.1084 -4.1366 7.9080 2.2330 -1.9433 4.0966 -0.0000 -0.0000 0.0000 -91.9730 -72.1861 37.6675 85.1258 -59.9100 -55.7801 -0.0000 -0.0000 35.5960 10.9304 1.9507 0.3766 -7.1250 0.0000 -0.0000 -12.5126 31.8019 4.1266 -0.0000 -0.0000 0.0000 34.7842 62.8849 -5.7609 -97.8388 59.7665 -66.7832 0.0000 0.0000 20.7428 1.1084 -13.9523 -0.2673 7.1250 -0.0000 -0.0000 25.4061 -42.3967 1.7570
-0.8615 11.4543 11.2720 -1.7277 1.5439 9.1733 0.0000 0.0000 0.0000 -3.4366 -7.5839 -74.5009 26.2656 19.0315 108.6083 2.9503 5.4981 -34.7160 0.5034 -4.5484 -12.6250 0.0000 0.0000 0.0000 7.1484 13.8968 -73.2509 -26.5896 -18.9254 109.6045 -3.2950 -6.1413 -36.8150 -0.4901 4.4885 -12.4553 -2.3085 1.5402 18.9635 1.1327 1.6628 -3.6092 2.0809 1.0300 -14.9536 -5.7245 -3.2764 -9.2366 5.0991 -4.1395 7.8972 2.2297 -1.9452 4.0926 -0.0000 -0.0000 0.0000 -91.9643 -72.1712 37.6691 85.1229 -59.9099 -55.7775 -0.0000 -0.0000 35.6022 10.9599 1.9421 0.3760 -7.1250 0.0000 -0.0000 -12.4882 31.7942 4.1206 -0.0000 -0.0000 0.0000 34.7768 62.8801 -5.7626 -97.8506 59.7658 -66.7935 0.0000 0.0000 20.7419 1.1151 -13.9520 -0.2689 7.1250 -0.0000 -0.0000 25.4116 -42.3956 1.7582
